<svg version="1.0" xmlns="http://www.w3.org/2000/svg"
 width="980.000000pt" height="980.000000pt" viewBox="0 0 980.000000 980.000000"
 preserveAspectRatio="xMidYMid meet">

<g transform="translate(0.000000,980.000000) scale(0.100000,-0.100000)"
fill="#000000" stroke="none">
<path d="M4581 7514 c-305 -151 -558 -274 -563 -274 -4 0 -8 -207 -8 -459 l0
-459 93 -37 93 -37 82 41 c45 23 84 41 87 41 3 0 5 -36 5 -79 l0 -79 31 -11
c18 -6 34 -11 35 -11 2 0 4 50 4 110 l0 110 125 60 c69 33 130 60 135 60 6 0
10 -60 10 -150 l0 -150 -87 -44 c-49 -25 -86 -45 -83 -45 3 -1 55 -21 114 -46
60 -25 113 -45 117 -45 4 0 6 11 5 24 -2 14 0 28 3 33 7 10 278 143 292 143 5
0 9 -67 9 -150 l0 -150 -110 -55 -110 -55 0 -75 c0 -41 1 -75 3 -75 1 0 48 23
105 50 57 28 105 50 108 50 2 0 4 -69 4 -153 l0 -153 -110 -54 -110 -54 0 -73
c0 -40 2 -73 5 -73 3 0 50 23 105 50 55 28 102 50 105 50 3 0 5 -70 5 -156 l0
-155 -110 -51 -110 -51 0 -74 c0 -43 4 -73 10 -73 6 0 51 20 100 45 49 25 94
45 100 45 6 0 10 -55 10 -150 l0 -150 -110 -55 -110 -55 0 -75 c0 -41 2 -75 5
-75 3 0 50 22 105 50 55 28 102 50 105 50 3 0 5 -69 5 -153 l0 -153 -110 -54
-110 -54 0 -73 c0 -40 2 -73 5 -73 4 0 191 87 208 97 4 2 7 -66 7 -151 l0
-156 -110 -55 -110 -55 0 -75 0 -74 92 44 c50 25 93 47 96 50 3 3 11 5 19 5
10 0 13 -32 13 -153 l0 -153 -110 -54 -110 -53 0 -73 c0 -41 2 -74 5 -74 3 0
50 23 105 50 55 28 102 50 105 50 3 0 5 -34 5 -75 l0 -75 -165 0 -165 0 -2
1532 -3 1532 -140 59 c-77 32 -192 80 -255 106 -63 26 -199 83 -302 125 l-186
78 -369 -237 -368 -237 -5 -1610 -5 -1610 -130 -49 c-294 -111 -557 -264 -707
-410 -46 -44 -76 -78 -68 -76 8 3 71 30 140 60 384 167 935 293 1558 357 332
33 463 41 832 47 1096 18 2116 -137 2744 -418 60 -27 111 -47 113 -45 2 2 -33
38 -77 80 -193 181 -486 336 -877 465 l-174 57 -236 185 c-131 101 -240 185
-244 187 -4 2 -90 -45 -190 -105 l-183 -108 -60 3 c-34 2 -64 7 -69 11 -4 4
-6 497 -5 1097 l3 1089 245 147 c135 81 252 147 261 148 9 0 22 -7 29 -15 7
-8 15 -13 19 -11 3 2 5 424 3 938 l-3 933 -442 333 c-244 182 -447 332 -453
331 -5 0 -258 -124 -563 -275z m499 -60 l0 -155 -146 -71 c-80 -38 -148 -68
-151 -65 -9 9 -6 301 3 305 5 2 70 34 144 72 74 37 138 68 143 69 4 0 7 -69 7
-155z m-370 -184 l0 -150 -130 -65 c-71 -36 -132 -65 -135 -65 -3 0 -5 69 -5
153 l0 152 123 62 c67 34 128 62 135 62 9 1 12 -35 12 -149z m-340 -165 l0
-155 -149 -74 c-82 -41 -151 -72 -155 -69 -9 9 -7 286 2 299 5 9 273 145 300
153 1 1 2 -69 2 -154z m708 -117 l-3 -153 -145 -71 c-80 -39 -147 -70 -150
-68 -3 1 -5 15 -4 31 1 15 3 83 3 150 l1 123 138 69 c75 39 143 70 150 70 10
1 12 -33 10 -151z m-368 -181 l0 -152 -135 -68 -135 -67 0 158 0 157 128 62
c70 34 130 62 135 62 4 1 7 -68 7 -152z m-340 -170 l0 -152 -151 -72 c-110
-52 -151 -68 -155 -59 -3 8 -4 76 -2 152 l3 139 140 72 c77 40 146 72 153 73
9 0 12 -37 12 -153z m710 -110 l0 -152 -146 -73 c-80 -40 -148 -71 -152 -68
-4 2 -6 71 -4 153 l3 149 142 71 c78 40 145 72 150 72 4 1 7 -68 7 -152z
m-1222 -2094 l-3 -1696 -130 -24 c-105 -19 -382 -86 -492 -119 l-23 -6 0 1573
0 1574 318 197 c174 109 320 197 325 198 4 0 6 -763 5 -1697z m2263 -1679 c71
-37 128 -68 126 -70 -2 -3 -46 4 -98 15 -52 10 -111 22 -131 25 -37 7 -38 8
-38 51 0 25 3 45 6 45 3 0 64 -30 135 -66z"/>
<path d="M5783 5024 l-193 -116 0 -154 c0 -85 1 -154 3 -154 2 0 86 36 186 80
101 44 190 80 197 80 8 0 100 -43 205 -96 105 -52 192 -94 194 -92 1 2 -87 66
-196 143 l-199 140 0 53 c0 28 3 52 7 52 5 0 595 -308 647 -338 5 -3 6 0 2 6
-8 14 -634 502 -650 507 -6 2 -98 -48 -203 -111z"/>
<path d="M5785 4596 l-190 -113 -3 -151 c-2 -109 1 -152 9 -152 6 0 94 36 196
80 l184 80 202 -100 c111 -56 195 -95 186 -88 -10 7 -100 72 -202 143 l-186
130 -1 53 c0 46 2 53 18 48 9 -3 154 -78 321 -166 168 -87 312 -162 320 -165
22 -9 20 -7 -189 156 -102 80 -246 193 -322 252 -75 59 -140 107 -145 107 -4
0 -93 -51 -198 -114z"/>
<path d="M5780 4166 l-185 -111 -3 -153 c-1 -83 1 -152 5 -152 5 0 92 36 194
80 l187 81 192 -96 c106 -53 194 -95 196 -93 2 2 -83 64 -188 138 -104 74
-192 140 -195 146 -2 6 -3 32 -1 57 l3 46 190 -100 c105 -55 254 -134 333
-175 78 -41 142 -73 142 -71 0 3 -44 39 -97 80 -54 42 -201 157 -328 256 -126
99 -237 180 -245 180 -8 0 -98 -51 -200 -113z"/>
<path d="M5802 3750 c-101 -59 -189 -114 -197 -120 -12 -10 -15 -43 -15 -161
0 -82 2 -149 5 -149 2 0 87 36 189 80 101 44 190 80 198 80 7 -1 96 -43 198
-95 102 -51 186 -92 187 -91 2 1 -16 16 -40 33 -23 16 -111 78 -194 138 l-153
108 0 53 c0 57 4 62 35 41 11 -8 83 -47 160 -87 212 -110 343 -179 414 -218
35 -19 61 -30 58 -25 -4 6 -95 79 -204 164 -109 85 -252 196 -318 248 -66 52
-125 98 -130 102 -6 5 -89 -39 -193 -101z"/>
<path d="M5783 3313 l-193 -115 0 -147 c0 -81 3 -150 6 -153 3 -3 86 30 186
73 99 43 187 79 194 79 8 0 101 -43 207 -96 190 -95 212 -102 124 -41 -25 18
-109 77 -186 131 l-141 100 0 53 c0 29 3 53 6 53 3 0 137 -69 297 -154 161
-84 308 -161 327 -170 34 -17 34 -16 -10 22 -61 53 -614 482 -620 481 -3 0
-92 -53 -197 -116z"/>
</g>
</svg>